<mxfile host="app.diagrams.net" agent="Mozilla/5.0 (X11; Linux x86_64; rv:129.0) Gecko/20100101 Firefox/129.0" version="24.7.8">
  <diagram id="C5RBs43oDa-KdzZeNtuy" name="Page-1">
    <mxGraphModel dx="2954" dy="1060" grid="1" gridSize="10" guides="1" tooltips="1" connect="1" arrows="1" fold="1" page="1" pageScale="1" pageWidth="827" pageHeight="1169" math="0" shadow="0">
      <root>
        <mxCell id="WIyWlLk6GJQsqaUBKTNV-0" />
        <mxCell id="WIyWlLk6GJQsqaUBKTNV-1" parent="WIyWlLk6GJQsqaUBKTNV-0" />
        <mxCell id="okWmVg_pO7hMx1vmF3n--38" value="" style="group" parent="WIyWlLk6GJQsqaUBKTNV-1" vertex="1" connectable="0">
          <mxGeometry x="260" y="60" width="301" height="891.0127052384673" as="geometry" />
        </mxCell>
        <mxCell id="okWmVg_pO7hMx1vmF3n--15" value="" style="group" parent="okWmVg_pO7hMx1vmF3n--38" vertex="1" connectable="0">
          <mxGeometry x="21.423487544483987" y="493.1587177482407" width="273.1494661921708" height="323.10398749022664" as="geometry" />
        </mxCell>
        <mxCell id="okWmVg_pO7hMx1vmF3n--7" value="&lt;div&gt;IF&lt;/div&gt;&lt;div&gt;hash&amp;lt;hashEnd&lt;br&gt;&lt;/div&gt;" style="rhombus;whiteSpace=wrap;html=1;" parent="okWmVg_pO7hMx1vmF3n--15" vertex="1">
          <mxGeometry y="65.67007136559478" width="192.81138790035587" height="47.76005190225075" as="geometry" />
        </mxCell>
        <mxCell id="okWmVg_pO7hMx1vmF3n--19" value="hash=testFile.getHash(0)" style="shape=parallelogram;perimeter=parallelogramPerimeter;whiteSpace=wrap;html=1;fixedSize=1;" parent="okWmVg_pO7hMx1vmF3n--15" vertex="1">
          <mxGeometry x="5.355871886120997" y="-8.502736512900702" width="182.09964412811388" height="34.01094605160281" as="geometry" />
        </mxCell>
        <mxCell id="okWmVg_pO7hMx1vmF3n--20" value="" style="edgeStyle=orthogonalEdgeStyle;rounded=0;orthogonalLoop=1;jettySize=auto;html=1;" parent="okWmVg_pO7hMx1vmF3n--15" source="okWmVg_pO7hMx1vmF3n--19" target="okWmVg_pO7hMx1vmF3n--7" edge="1">
          <mxGeometry relative="1" as="geometry" />
        </mxCell>
        <mxCell id="okWmVg_pO7hMx1vmF3n--25" value="" style="group" parent="okWmVg_pO7hMx1vmF3n--15" vertex="1" connectable="0">
          <mxGeometry x="16.06761565836299" y="153.04925723221265" width="257.0818505338078" height="170.05473025801405" as="geometry" />
        </mxCell>
        <mxCell id="okWmVg_pO7hMx1vmF3n--8" value="total0=totalzeros+!getBit(hash[byte], bit)" style="rounded=1;whiteSpace=wrap;html=1;" parent="okWmVg_pO7hMx1vmF3n--25" vertex="1">
          <mxGeometry width="160.6761565836299" height="36.73182173573103" as="geometry" />
        </mxCell>
        <mxCell id="okWmVg_pO7hMx1vmF3n--10" value="" style="edgeStyle=orthogonalEdgeStyle;rounded=0;orthogonalLoop=1;jettySize=auto;html=1;" parent="okWmVg_pO7hMx1vmF3n--15" source="okWmVg_pO7hMx1vmF3n--7" target="okWmVg_pO7hMx1vmF3n--8" edge="1">
          <mxGeometry relative="1" as="geometry" />
        </mxCell>
        <mxCell id="okWmVg_pO7hMx1vmF3n--26" value="T" style="edgeLabel;html=1;align=center;verticalAlign=middle;resizable=0;points=[];" parent="okWmVg_pO7hMx1vmF3n--10" vertex="1" connectable="0">
          <mxGeometry x="-0.2447" y="1" relative="1" as="geometry">
            <mxPoint as="offset" />
          </mxGeometry>
        </mxCell>
        <mxCell id="okWmVg_pO7hMx1vmF3n--21" value="" style="group" parent="okWmVg_pO7hMx1vmF3n--38" vertex="1" connectable="0">
          <mxGeometry width="235.66" height="447.38866800858375" as="geometry" />
        </mxCell>
        <mxCell id="okWmVg_pO7hMx1vmF3n--28" value="" style="edgeStyle=orthogonalEdgeStyle;rounded=0;orthogonalLoop=1;jettySize=auto;html=1;" parent="okWmVg_pO7hMx1vmF3n--21" source="okWmVg_pO7hMx1vmF3n--4" target="okWmVg_pO7hMx1vmF3n--17" edge="1">
          <mxGeometry relative="1" as="geometry" />
        </mxCell>
        <mxCell id="okWmVg_pO7hMx1vmF3n--29" value="T" style="edgeLabel;html=1;align=center;verticalAlign=middle;resizable=0;points=[];" parent="okWmVg_pO7hMx1vmF3n--28" vertex="1" connectable="0">
          <mxGeometry x="-0.2333" y="2" relative="1" as="geometry">
            <mxPoint as="offset" />
          </mxGeometry>
        </mxCell>
        <mxCell id="okWmVg_pO7hMx1vmF3n--62" style="edgeStyle=orthogonalEdgeStyle;rounded=0;orthogonalLoop=1;jettySize=auto;html=1;exitX=0;exitY=0.5;exitDx=0;exitDy=0;" parent="okWmVg_pO7hMx1vmF3n--21" source="okWmVg_pO7hMx1vmF3n--4" edge="1">
          <mxGeometry relative="1" as="geometry">
            <mxPoint x="140" y="860" as="targetPoint" />
            <Array as="points">
              <mxPoint x="-219" y="268" />
              <mxPoint x="-219" y="820" />
              <mxPoint x="140" y="820" />
            </Array>
          </mxGeometry>
        </mxCell>
        <mxCell id="okWmVg_pO7hMx1vmF3n--4" value="&lt;div&gt;IF&lt;/div&gt;&lt;div&gt;byte&amp;lt;hashBytes&lt;br&gt;&lt;/div&gt;" style="rhombus;whiteSpace=wrap;html=1;" parent="okWmVg_pO7hMx1vmF3n--21" vertex="1">
          <mxGeometry x="21.423487544483987" y="246.57935887412035" width="192.81138790035587" height="42.51368256450351" as="geometry" />
        </mxCell>
        <mxCell id="okWmVg_pO7hMx1vmF3n--34" value="" style="edgeStyle=orthogonalEdgeStyle;rounded=0;orthogonalLoop=1;jettySize=auto;html=1;" parent="okWmVg_pO7hMx1vmF3n--21" source="okWmVg_pO7hMx1vmF3n--17" target="okWmVg_pO7hMx1vmF3n--6" edge="1">
          <mxGeometry relative="1" as="geometry" />
        </mxCell>
        <mxCell id="okWmVg_pO7hMx1vmF3n--17" value="bit=7" style="shape=parallelogram;perimeter=parallelogramPerimeter;whiteSpace=wrap;html=1;fixedSize=1;" parent="okWmVg_pO7hMx1vmF3n--21" vertex="1">
          <mxGeometry x="80.33807829181495" y="340.1094605160281" width="74.98220640569394" height="34.01094605160281" as="geometry" />
        </mxCell>
        <mxCell id="okWmVg_pO7hMx1vmF3n--6" value="&lt;div&gt;IF&lt;/div&gt;&lt;div&gt;bit&amp;gt;=0&lt;br&gt;&lt;/div&gt;" style="rhombus;whiteSpace=wrap;html=1;" parent="okWmVg_pO7hMx1vmF3n--21" vertex="1">
          <mxGeometry x="21.423487544483987" y="399.628616106333" width="192.81138790035587" height="47.76005190225075" as="geometry" />
        </mxCell>
        <mxCell id="okWmVg_pO7hMx1vmF3n--27" value="" style="group" parent="okWmVg_pO7hMx1vmF3n--21" vertex="1" connectable="0">
          <mxGeometry width="235.66" height="212.57" as="geometry" />
        </mxCell>
        <mxCell id="okWmVg_pO7hMx1vmF3n--3" value="&lt;div&gt;&lt;div&gt;TestFile testFile&lt;/div&gt;&lt;div&gt;byte=0&lt;br&gt;&lt;/div&gt;&lt;/div&gt;&lt;div&gt;n=testFile.getPopulationSize()&lt;/div&gt;&lt;div&gt;hashEnd=testFile.getHash(n)&lt;/div&gt;&lt;div&gt;total0s=0&lt;br&gt;&lt;/div&gt;" style="rounded=1;whiteSpace=wrap;html=1;" parent="okWmVg_pO7hMx1vmF3n--27" vertex="1">
          <mxGeometry y="130" width="235.66" height="82.57" as="geometry" />
        </mxCell>
        <mxCell id="cXNG8BoswcSOI-frgu21-0" value="" style="group" vertex="1" connectable="0" parent="okWmVg_pO7hMx1vmF3n--27">
          <mxGeometry x="42.85" y="-20" width="149.96" height="120" as="geometry" />
        </mxCell>
        <mxCell id="okWmVg_pO7hMx1vmF3n--37" value="" style="edgeStyle=orthogonalEdgeStyle;rounded=0;orthogonalLoop=1;jettySize=auto;html=1;" parent="cXNG8BoswcSOI-frgu21-0" source="okWmVg_pO7hMx1vmF3n--0" target="okWmVg_pO7hMx1vmF3n--3" edge="1">
          <mxGeometry relative="1" as="geometry" />
        </mxCell>
        <mxCell id="okWmVg_pO7hMx1vmF3n--0" value="&lt;div&gt;START&lt;/div&gt;" style="ellipse;whiteSpace=wrap;html=1;" parent="cXNG8BoswcSOI-frgu21-0" vertex="1">
          <mxGeometry x="21.422857142857143" width="107.11428571428573" height="40.12295857988165" as="geometry" />
        </mxCell>
        <mxCell id="okWmVg_pO7hMx1vmF3n--36" value="" style="edgeStyle=orthogonalEdgeStyle;rounded=0;orthogonalLoop=1;jettySize=auto;html=1;" parent="cXNG8BoswcSOI-frgu21-0" source="okWmVg_pO7hMx1vmF3n--2" target="okWmVg_pO7hMx1vmF3n--3" edge="1">
          <mxGeometry relative="1" as="geometry" />
        </mxCell>
        <mxCell id="okWmVg_pO7hMx1vmF3n--2" value="&lt;div&gt;testFile file&lt;/div&gt;&lt;div&gt;nameCSV&lt;br&gt;&lt;/div&gt;" style="shape=parallelogram;perimeter=parallelogramPerimeter;whiteSpace=wrap;html=1;fixedSize=1;" parent="cXNG8BoswcSOI-frgu21-0" vertex="1">
          <mxGeometry y="75.62130177514793" width="149.96" height="44.37869822485207" as="geometry" />
        </mxCell>
        <mxCell id="okWmVg_pO7hMx1vmF3n--35" value="" style="edgeStyle=orthogonalEdgeStyle;rounded=0;orthogonalLoop=1;jettySize=auto;html=1;" parent="okWmVg_pO7hMx1vmF3n--21" source="okWmVg_pO7hMx1vmF3n--3" target="okWmVg_pO7hMx1vmF3n--4" edge="1">
          <mxGeometry relative="1" as="geometry" />
        </mxCell>
        <mxCell id="okWmVg_pO7hMx1vmF3n--23" value="" style="edgeStyle=orthogonalEdgeStyle;rounded=0;orthogonalLoop=1;jettySize=auto;html=1;" parent="okWmVg_pO7hMx1vmF3n--38" source="okWmVg_pO7hMx1vmF3n--6" target="okWmVg_pO7hMx1vmF3n--19" edge="1">
          <mxGeometry relative="1" as="geometry" />
        </mxCell>
        <mxCell id="okWmVg_pO7hMx1vmF3n--24" value="T" style="edgeLabel;html=1;align=center;verticalAlign=middle;resizable=0;points=[];" parent="okWmVg_pO7hMx1vmF3n--23" vertex="1" connectable="0">
          <mxGeometry x="-0.232" y="-1" relative="1" as="geometry">
            <mxPoint as="offset" />
          </mxGeometry>
        </mxCell>
        <mxCell id="okWmVg_pO7hMx1vmF3n--58" value="" style="edgeStyle=orthogonalEdgeStyle;rounded=0;orthogonalLoop=1;jettySize=auto;html=1;" parent="WIyWlLk6GJQsqaUBKTNV-1" source="okWmVg_pO7hMx1vmF3n--39" target="okWmVg_pO7hMx1vmF3n--4" edge="1">
          <mxGeometry relative="1" as="geometry" />
        </mxCell>
        <mxCell id="okWmVg_pO7hMx1vmF3n--39" value="byte=byte++" style="rounded=1;whiteSpace=wrap;html=1;" parent="WIyWlLk6GJQsqaUBKTNV-1" vertex="1">
          <mxGeometry x="530" y="312.84" width="100" height="30" as="geometry" />
        </mxCell>
        <mxCell id="okWmVg_pO7hMx1vmF3n--51" value="" style="edgeStyle=orthogonalEdgeStyle;rounded=0;orthogonalLoop=1;jettySize=auto;html=1;" parent="WIyWlLk6GJQsqaUBKTNV-1" source="okWmVg_pO7hMx1vmF3n--9" target="okWmVg_pO7hMx1vmF3n--7" edge="1">
          <mxGeometry relative="1" as="geometry" />
        </mxCell>
        <mxCell id="okWmVg_pO7hMx1vmF3n--9" value="hash=hash+hashbytes" style="rounded=1;whiteSpace=wrap;html=1;" parent="WIyWlLk6GJQsqaUBKTNV-1" vertex="1">
          <mxGeometry x="540.0011032028469" y="629.9996481626268" width="160.6761565836299" height="24.487881157154018" as="geometry" />
        </mxCell>
        <mxCell id="okWmVg_pO7hMx1vmF3n--50" style="edgeStyle=orthogonalEdgeStyle;rounded=0;orthogonalLoop=1;jettySize=auto;html=1;" parent="WIyWlLk6GJQsqaUBKTNV-1" source="okWmVg_pO7hMx1vmF3n--8" target="okWmVg_pO7hMx1vmF3n--9" edge="1">
          <mxGeometry relative="1" as="geometry" />
        </mxCell>
        <mxCell id="okWmVg_pO7hMx1vmF3n--55" value="F" style="edgeLabel;html=1;align=center;verticalAlign=middle;resizable=0;points=[];" parent="okWmVg_pO7hMx1vmF3n--50" vertex="1" connectable="0">
          <mxGeometry x="-0.287" y="1" relative="1" as="geometry">
            <mxPoint as="offset" />
          </mxGeometry>
        </mxCell>
        <mxCell id="okWmVg_pO7hMx1vmF3n--53" value="" style="edgeStyle=orthogonalEdgeStyle;rounded=0;orthogonalLoop=1;jettySize=auto;html=1;" parent="WIyWlLk6GJQsqaUBKTNV-1" source="okWmVg_pO7hMx1vmF3n--14" target="okWmVg_pO7hMx1vmF3n--6" edge="1">
          <mxGeometry relative="1" as="geometry" />
        </mxCell>
        <mxCell id="okWmVg_pO7hMx1vmF3n--14" value="bit=bit-1" style="rounded=1;whiteSpace=wrap;html=1;" parent="WIyWlLk6GJQsqaUBKTNV-1" vertex="1">
          <mxGeometry x="530.0025266903915" y="470.00091477716956" width="112.47330960854093" height="28.229085222830335" as="geometry" />
        </mxCell>
        <mxCell id="okWmVg_pO7hMx1vmF3n--60" style="edgeStyle=orthogonalEdgeStyle;rounded=0;orthogonalLoop=1;jettySize=auto;html=1;entryX=1;entryY=0.25;entryDx=0;entryDy=0;" parent="WIyWlLk6GJQsqaUBKTNV-1" source="okWmVg_pO7hMx1vmF3n--30" target="okWmVg_pO7hMx1vmF3n--14" edge="1">
          <mxGeometry relative="1" as="geometry">
            <mxPoint x="730" y="480" as="targetPoint" />
            <Array as="points">
              <mxPoint x="186" y="790" />
              <mxPoint x="720" y="790" />
              <mxPoint x="720" y="484" />
              <mxPoint x="643" y="484" />
            </Array>
          </mxGeometry>
        </mxCell>
        <mxCell id="okWmVg_pO7hMx1vmF3n--63" value="F" style="edgeLabel;html=1;align=center;verticalAlign=middle;resizable=0;points=[];" parent="okWmVg_pO7hMx1vmF3n--60" vertex="1" connectable="0">
          <mxGeometry x="0.5105" y="-4" relative="1" as="geometry">
            <mxPoint as="offset" />
          </mxGeometry>
        </mxCell>
        <mxCell id="okWmVg_pO7hMx1vmF3n--30" value="&lt;div&gt;&lt;u&gt;&lt;b&gt;resultCSV&lt;/b&gt;&lt;/u&gt;&lt;/div&gt;&lt;div&gt;total0/(n*(bytes*8+(8-bit)))&lt;br&gt;&lt;/div&gt;" style="shape=parallelogram;perimeter=parallelogramPerimeter;whiteSpace=wrap;html=1;fixedSize=1;" parent="WIyWlLk6GJQsqaUBKTNV-1" vertex="1">
          <mxGeometry x="100" y="700" width="171.02" height="40.79" as="geometry" />
        </mxCell>
        <mxCell id="okWmVg_pO7hMx1vmF3n--59" style="edgeStyle=orthogonalEdgeStyle;rounded=0;orthogonalLoop=1;jettySize=auto;html=1;exitX=0;exitY=0.5;exitDx=0;exitDy=0;entryX=0.456;entryY=-0.049;entryDx=0;entryDy=0;entryPerimeter=0;" parent="WIyWlLk6GJQsqaUBKTNV-1" source="okWmVg_pO7hMx1vmF3n--7" target="okWmVg_pO7hMx1vmF3n--30" edge="1">
          <mxGeometry relative="1" as="geometry">
            <mxPoint x="180" y="680" as="targetPoint" />
          </mxGeometry>
        </mxCell>
        <mxCell id="okWmVg_pO7hMx1vmF3n--61" style="edgeStyle=orthogonalEdgeStyle;rounded=0;orthogonalLoop=1;jettySize=auto;html=1;entryX=1;entryY=0.5;entryDx=0;entryDy=0;" parent="WIyWlLk6GJQsqaUBKTNV-1" source="okWmVg_pO7hMx1vmF3n--6" target="okWmVg_pO7hMx1vmF3n--39" edge="1">
          <mxGeometry relative="1" as="geometry">
            <mxPoint x="760" y="300" as="targetPoint" />
            <Array as="points">
              <mxPoint x="81" y="484" />
              <mxPoint x="81" y="840" />
              <mxPoint x="760" y="840" />
              <mxPoint x="760" y="328" />
            </Array>
          </mxGeometry>
        </mxCell>
        <mxCell id="okWmVg_pO7hMx1vmF3n--64" value="F" style="edgeLabel;html=1;align=center;verticalAlign=middle;resizable=0;points=[];" parent="okWmVg_pO7hMx1vmF3n--61" vertex="1" connectable="0">
          <mxGeometry x="0.5792" relative="1" as="geometry">
            <mxPoint as="offset" />
          </mxGeometry>
        </mxCell>
        <mxCell id="okWmVg_pO7hMx1vmF3n--67" value="" style="edgeStyle=orthogonalEdgeStyle;rounded=0;orthogonalLoop=1;jettySize=auto;html=1;" parent="WIyWlLk6GJQsqaUBKTNV-1" source="okWmVg_pO7hMx1vmF3n--65" target="okWmVg_pO7hMx1vmF3n--66" edge="1">
          <mxGeometry relative="1" as="geometry" />
        </mxCell>
        <mxCell id="okWmVg_pO7hMx1vmF3n--65" value="&lt;div&gt;resultCSV&lt;/div&gt;&lt;div&gt;&lt;i style=&quot;font-weight: normal;&quot;&gt;line for sample n is printed&lt;/i&gt;&lt;br&gt;&lt;/div&gt;" style="shape=parallelogram;perimeter=parallelogramPerimeter;whiteSpace=wrap;html=1;fixedSize=1;fontStyle=5" parent="WIyWlLk6GJQsqaUBKTNV-1" vertex="1">
          <mxGeometry x="290" y="920" width="220" height="60" as="geometry" />
        </mxCell>
        <mxCell id="okWmVg_pO7hMx1vmF3n--66" value="END" style="ellipse;whiteSpace=wrap;html=1;" parent="WIyWlLk6GJQsqaUBKTNV-1" vertex="1">
          <mxGeometry x="355" y="1020" width="90" height="60" as="geometry" />
        </mxCell>
      </root>
    </mxGraphModel>
  </diagram>
</mxfile>
